<svg xmlns="http://www.w3.org/2000/svg" width="51" height="51" viewBox="0 0 51 51">
    <g fill="none" fill-rule="evenodd" stroke-linecap="round" stroke-linejoin="round">
        <path stroke="#4A4A4A" stroke-width="1.8" d="M49.477 25.189c0 13.414-10.874 24.289-24.288 24.289C11.774 49.478.9 38.603.9 25.188.9 11.776 11.774.9 25.189.9c13.413 0 24.288 10.875 24.288 24.289z"/>
        <path stroke="#95BFAF" stroke-width="1.662" d="M30.566 25.781c0 2.068-1.676 3.744-3.743 3.744-2.068 0-3.744-1.676-3.744-3.744 0-2.067 1.676-3.744 3.744-3.744 2.067 0 3.743 1.677 3.743 3.744zM29.638 28.256l2.859 2.86"/>
        <path stroke="#4A4A4A" stroke-width="1.8" d="M37.193 39.249L34.774 36.924 32.355 39.249 29.936 36.924 27.517 39.249 25.098 36.924 22.678 39.249 20.256 36.924 17.834 39.249"/>
        <path stroke="#4A4A4A" stroke-width="1.8" d="M37.193 39.249L37.193 16.031 17.834 16.031 17.834 39.249"/>
        <path stroke="#4A4A4A" stroke-width="1.8" d="M32.543 12.763L32.543 11.128 13.184 11.128 13.184 34.346 14.512 34.346"/>
    </g>
</svg>
