<svg xmlns="http://www.w3.org/2000/svg" width="60" height="60" viewBox="0 0 51 51">
    <g fill="none" fill-rule="evenodd" stroke-linecap="round" stroke-linejoin="round">
        <path stroke="#4A4A4A" stroke-width="1.8" d="M49.477 25.189c0 13.414-10.874 24.289-24.288 24.289C11.774 49.478.9 38.603.9 25.188.9 11.775 11.774.9 25.19.9c13.413 0 24.287 10.874 24.287 24.289z"/>
        <path stroke="#4A4A4A" stroke-width="1.8" d="M33.743 17.39c0-2.569-4.68-4.65-10.453-4.65s-10.452 2.082-10.452 4.65v1.902c0 .55.196 1.051.52 1.433.493.582.492 1.438.016 2.034-.307.383-.536.83-.536 1.306v13.221c0 1.438 1.123 2.602 2.508 2.602h15.888c1.386 0 2.509-1.164 2.509-2.602v-13.22c0-.584-.345-1.122-.754-1.556-.43-.454-.396-1.178.059-1.602.426-.398.695-.975.695-1.616V17.39zM25.535 10.49c-6.49 0-10.328 2.852-12.29 5.638"/>
        <path stroke="#4A4A4A" stroke-width="1.8" d="M31.234 39.888c1.558 0 6.05-1.26 6.05-2.817V22.754c0-.279-.019-.582-.2-.8-.373-.45.144-.936.305-1.857.23-1.304.201-3.19-.106-4.57-.607-2.72-5.26-5.038-11.748-5.038"/>
        <path stroke="#95BFAF" stroke-width="1.662" d="M16.376 27.127v5.964M20.025 28.997c0-2.582 4.012-2.646 3.653 0-.098.73-3.653 4.095-3.653 4.095h3.653M26.702 28.373c0-2.162 3.542-2.049 3.542-.306 0 1.162-1.418 1.737-1.418 1.737s1.7.087 1.7 1.867c0 2.198-3.824 1.994-3.824.064"/>
    </g>
</svg>
