<svg xmlns="http://www.w3.org/2000/svg" width="51" height="51" viewBox="0 0 51 51">
    <g fill="none" fill-rule="evenodd" stroke-linecap="round" stroke-linejoin="round">
        <path stroke="#4A4A4A" stroke-width="1.8" d="M50.068 25.484c0 13.577-11.008 24.583-24.584 24.583C11.905 50.067.9 39.06.9 25.484.9 11.907 11.907.9 25.485.9 39.06.9 50.067 11.907 50.067 25.484z"/>
        <path stroke="#95BFAF" stroke-width="1.944" d="M34.31 21.056c0 4.874-3.952 8.826-8.826 8.826-4.874 0-8.825-3.952-8.825-8.826 0-4.874 3.95-8.825 8.825-8.825 4.874 0 8.826 3.951 8.826 8.825z"/>
        <path stroke="#4A4A4A" stroke-width="1.8" d="M32.349 26.602c-1.618 2-4.092 3.28-6.865 3.28-4.874 0-8.825-3.952-8.825-8.826 0-4.873 3.95-8.826 8.825-8.826"/>
        <path stroke="#4A4A4A" stroke-width="1.8" d="M14.919 47.687v-7.24c0-5.836 4.729-10.566 10.564-10.566M36.049 39.122v8.564"/>
    </g>
</svg>
